<svg xmlns="http://www.w3.org/2000/svg" viewBox="0 0 33.442 33.003"><defs><style>.a,.b{fill:none;stroke:#fff;stroke-width:2px;}.a{stroke-linecap:round;stroke-linejoin:round;}</style></defs><g transform="translate(1 1)"><path class="a" d="M45.626,1214.75l2.964,2.394H52.2l.828,3.2,3.34,1.1v3.487l2.227,2.465-1.632,2.9,1.632,3.038-2.919,2.065.26,3.528-3.542,1.095-.6,3.139-3.56-.214-2.358,2.442-3.181-1.692-2.891,1.692-2.462-2.72H33.806l-.937-3.168-3.315-.894.6-3.512-3-2.718,2.066-2.817-1.856-2.746,2.95-2.828-.519-3.2,3.075-.843,1.627-3.3,3.214.512,2.649-2.762,2.836,1.845Z" transform="translate(-27.152 -1214.382)"/><path class="b" d="M32.877,1445.264l4.542,4.255,9.468-9.761" transform="translate(-23.906 -1428.584)"/></g></svg>