<svg xmlns="http://www.w3.org/2000/svg" viewBox="0 0 31.72 31.304"><defs><style>.a,.b{fill:none;stroke:#fff;stroke-linecap:round;stroke-width:2px;}.a{stroke-linejoin:round;}.c{fill:#fff;font-size:13px;font-family:BigCaslon-Medium, Big Caslon;font-weight:500;}</style></defs><g transform="translate(1 0.519)"><path class="a" d="M44.613,1214.73l2.8,2.263h3.412l.783,3.021,3.157,1.037v3.3l2.105,2.33-1.543,2.743,1.543,2.871-2.76,1.952.246,3.335-3.348,1.035-.57,2.967-3.365-.2-2.229,2.308-3.007-1.6-2.733,1.6-2.327-2.571h-3.34l-.885-2.994-3.133-.845.564-3.319-2.834-2.569,1.953-2.662-1.754-2.6,2.788-2.673-.49-3.026,2.907-.8,1.538-3.123,3.038.484,2.5-2.611,2.681,1.744Z" transform="translate(-27.152 -1213.9)"/><path class="b" d="M247.965,1300.628H260.4" transform="translate(-239.375 -1282.183)"/><path class="b" d="M247.965,1300.628H260.4" transform="translate(-239.375 -1279.661)"/><path class="b" d="M247.965,1300.628H260.4" transform="translate(-239.375 -1277.139)"/><text class="c" transform="translate(11.156 12)"><tspan x="0" y="0">$</tspan></text></g></svg>