<svg xmlns="http://www.w3.org/2000/svg" viewBox="0 0 28.444 34.714"><defs><style>.a{fill:#fff;}</style></defs><g transform="translate(-34.335 3)"><g transform="translate(34.335 -3)"><path class="a" d="M26.052,26.128V15.309A11.962,11.962,0,0,0,17.262,3.79V3.021A3.025,3.025,0,0,0,14.24,0H14.2a3.025,3.025,0,0,0-3.021,3.021v.71A11.963,11.963,0,0,0,2.169,15.309V26.253A4.461,4.461,0,0,0,0,30.05a.678.678,0,0,0,.678.678h9.954v.4a3.59,3.59,0,1,0,7.181,0v-.4h9.954a.678.678,0,0,0,.678-.678A4.477,4.477,0,0,0,26.052,26.128ZM12.538,3.368V3.021A1.667,1.667,0,0,1,14.2,1.356h.037a1.667,1.667,0,0,1,1.665,1.665v.346Zm3.918,27.756a2.234,2.234,0,1,1-4.469,0v-.4h4.469Zm.678-1.751H1.434a3.126,3.126,0,0,1,1.581-2.04H15.68a.678.678,0,0,0,0-1.356H3.525V15.309a10.585,10.585,0,1,1,21.171,0V26.561a.678.678,0,0,0,.428.63,3.136,3.136,0,0,1,1.886,2.181H17.134Zm0,0"/><path class="a" d="M260.44,383.121a.678.678,0,1,0,.479.2A.684.684,0,0,0,260.44,383.121Zm0,0" transform="translate(-242.15 -357.145)"/></g></g></svg>