<svg xmlns="http://www.w3.org/2000/svg" xmlns:xlink="http://www.w3.org/1999/xlink" viewBox="0 0 31.474 31.062"><defs><style>.a,.b{fill:#fff;}.a,.c{stroke:#fff;stroke-width:2px;}.b{font-size:18px;font-family:Seravek;}.c,.e,.f,.g,.h{fill:none;}.c{stroke-linecap:round;stroke-linejoin:round;}.d{stroke:none;}.e{clip-path:url(#b);}.f{clip-path:url(#d);}.g{clip-path:url(#f);}.h{clip-path:url(#h);}</style><clipPath id="b"><use xlink:href="#a"/></clipPath><clipPath id="d"><use xlink:href="#c"/></clipPath><clipPath id="f"><use xlink:href="#e"/></clipPath><clipPath id="h"><use xlink:href="#g"/></clipPath></defs><g transform="translate(1 1)"><g class="a" transform="translate(6.062 10.777)"><rect id="a" class="d" width="6.253" height="1.251"/><path class="e" d="M0,0.2505190372467041h6.2525954246521M5.2525954246521,0v1.250519037246704M6.2525954246521,1h-6.2525954246521M1,1.250519037246704v-1.250519037246704"/></g><g class="a" transform="translate(6.062 13.278)"><rect id="c" class="d" width="6.253" height="1.251"/><path class="f" d="M0,0.2505190372467041h6.2525954246521M5.2525954246521,0v1.250519037246704M6.2525954246521,1h-6.2525954246521M1,1.250519037246704v-1.250519037246704"/></g><g class="a" transform="translate(6.062 15.779)"><rect id="e" class="d" width="8.754" height="1.251"/><path class="g" d="M0,0.2505190372467041h8.753633499145508M7.753633499145508,0v1.250519037246704M8.753633499145508,1h-8.753633499145508M1,1.250519037246704v-1.250519037246704"/></g><g class="a" transform="translate(6.062 18.28)"><rect id="g" class="d" width="10.004" height="1.251"/><path class="h" d="M0,0.2505190372467041h10.004152297973633M9.004152297973633,0v1.250519037246704M10.004152297973633,1h-10.004152297973633M1,1.250519037246704v-1.250519037246704"/></g><text class="b" transform="translate(12.315 20.274)"><tspan x="0" y="0">$</tspan></text><path class="c" d="M44.469,1214.727l2.779,2.244h3.383l.777,3L54.539,1221v3.269l2.088,2.311-1.53,2.72,1.53,2.848-2.737,1.936.244,3.307-3.32,1.026-.565,2.942-3.337-.2-2.21,2.289-2.982-1.586-2.71,1.586-2.308-2.55H33.389l-.878-2.97-3.107-.838.559-3.292-2.811-2.548,1.936-2.641-1.74-2.574,2.765-2.651-.486-3,2.883-.791,1.525-3.1,3.013.48,2.483-2.589,2.658,1.729Z" transform="translate(-27.152 -1214.382)"/></g></svg>