<svg xmlns="http://www.w3.org/2000/svg" viewBox="0 0 33.165 32.729"><defs><style>.a{fill:#fff;font-size:19px;font-family:Seravek;}.b{fill:none;stroke:#fff;stroke-linecap:round;stroke-linejoin:round;stroke-width:2px;}</style></defs><g transform="translate(1 1)"><text class="a" transform="translate(10.376 20.14)"><tspan x="0" y="0">$</tspan></text><path class="b" d="M45.462,1214.747l2.938,2.373h3.577l.821,3.168,3.311,1.087v3.456l2.207,2.444-1.618,2.876,1.618,3.011-2.894,2.047.258,3.5-3.511,1.085-.6,3.111-3.529-.212-2.337,2.42-3.153-1.677-2.866,1.677-2.44-2.7h-3.5l-.928-3.14-3.285-.886.591-3.48-2.972-2.694,2.047-2.792L27.36,1226.7l2.924-2.8-.514-3.174,3.048-.836,1.613-3.275,3.186.507,2.625-2.738,2.811,1.828Z" transform="translate(-27.152 -1214.382)"/></g></svg>