<svg xmlns="http://www.w3.org/2000/svg" viewBox="0 0 35.401 35.401"><defs><style>.a{fill:#fff;}</style></defs><path class="a" d="M33.578,13.767H30.266a1.272,1.272,0,0,1-.9-2.171l2.342-2.341a1.824,1.824,0,0,0,0-2.578L28.724,3.692a1.866,1.866,0,0,0-2.578,0L23.8,6.033a1.271,1.271,0,0,1-2.171-.9V1.822A1.824,1.824,0,0,0,19.811,0H15.589a1.824,1.824,0,0,0-1.822,1.822V5.134a1.271,1.271,0,0,1-2.171.9L9.255,3.692a1.866,1.866,0,0,0-2.578,0L3.692,6.677a1.824,1.824,0,0,0,0,2.578L6.034,11.6a1.272,1.272,0,0,1-.9,2.171H1.822A1.824,1.824,0,0,0,0,15.589v4.221a1.825,1.825,0,0,0,1.822,1.823H5.134a1.272,1.272,0,0,1,.9,2.171L3.692,26.145a1.824,1.824,0,0,0,0,2.578l2.985,2.985a1.865,1.865,0,0,0,2.578,0L11.6,29.367a1.272,1.272,0,0,1,2.171.9v3.312A1.824,1.824,0,0,0,15.589,35.4h4.221a1.824,1.824,0,0,0,1.822-1.822V30.266a1.272,1.272,0,0,1,2.171-.9l2.341,2.342a1.866,1.866,0,0,0,2.578,0l2.985-2.985a1.824,1.824,0,0,0,0-2.578L29.366,23.8a1.272,1.272,0,0,1,.9-2.171h3.312A1.824,1.824,0,0,0,35.4,19.811V15.589A1.824,1.824,0,0,0,33.578,13.767Zm.511,6.044a.512.512,0,0,1-.511.511H30.266a2.583,2.583,0,0,0-1.826,4.409l2.342,2.341a.512.512,0,0,1,0,.724L27.8,30.781a.512.512,0,0,1-.724,0L24.732,28.44a2.583,2.583,0,0,0-4.409,1.826v3.312a.512.512,0,0,1-.511.511H15.589a.512.512,0,0,1-.511-.511V30.266a2.543,2.543,0,0,0-1.594-2.386,2.613,2.613,0,0,0-1-.2,2.547,2.547,0,0,0-1.81.763L8.328,30.781a.512.512,0,0,1-.724,0L4.619,27.8a.512.512,0,0,1,0-.724l2.342-2.341a2.582,2.582,0,0,0-1.826-4.409H1.822a.512.512,0,0,1-.511-.511V15.589a.512.512,0,0,1,.511-.511H5.134a2.583,2.583,0,0,0,1.826-4.409L4.619,8.328a.512.512,0,0,1,0-.724L7.6,4.619a.512.512,0,0,1,.724,0L10.669,6.96a2.583,2.583,0,0,0,4.409-1.826V1.822a.512.512,0,0,1,.511-.511h4.221a.512.512,0,0,1,.512.511V5.134a2.583,2.583,0,0,0,4.409,1.826L27.073,4.62a.512.512,0,0,1,.724,0L30.781,7.6a.512.512,0,0,1,0,.724L28.44,10.669a2.583,2.583,0,0,0,1.826,4.409h3.312a.511.511,0,0,1,.511.511Z"/><path class="a" d="M23.9,18a5.9,5.9,0,1,0,5.9,5.9A5.906,5.906,0,0,0,23.9,18Zm0,10.489A4.589,4.589,0,1,1,28.489,23.9,4.595,4.595,0,0,1,23.9,28.489Z" transform="translate(-6.2 -6.2)"/></svg>